<?xml version="1.0" encoding="utf-8"?>
<!-- Generator: Adobe Illustrator 21.1.0, SVG Export Plug-In . SVG Version: 6.00 Build 0)  -->
<svg version="1.1" xmlns="http://www.w3.org/2000/svg" xmlns:xlink="http://www.w3.org/1999/xlink" x="0px" y="0px"
	 viewBox="0 0 595.3 841.9" style="enable-background:new 0 0 595.3 841.9;" xml:space="preserve">
<style type="text/css">
	.st0{fill:#F0BDD4;}
</style>
<g id="レイヤー_1">
</g>
<g id="レイヤー_2">
	<g id="XMLID_1_">
		<g>
			<path class="st0" d="M297.6,67.2c152.4,0,276,123.6,276,276s-123.6,276-276,276c-152.4,0-276-123.6-276-276
				S145.2,67.2,297.6,67.2z M352.2,181.7c0-16-13-29-29-29c-16,0-29,13-29,29s13,29,29,29C339.2,210.8,352.2,197.8,352.2,181.7z
				 M324.4,281c19.2-1.5,19.2-30.7-3.5-29.2c-22.7,1.5-78,5-78,5c-11.1,0.7-21.1,4.2-20,16.1c1.2,11.9,9.6,14.2,17.3,13.5
				C248,285.6,305.2,282.6,324.4,281z M244.2,192.2c0-16-13-29-29-29c-16,0-29,13-29,29c0,16,13,29,29,29
				C231.2,221.3,244.2,208.3,244.2,192.2z"/>
		</g>
	</g>
</g>
</svg>
