<?xml version="1.0" encoding="utf-8"?>
<!-- Generator: Adobe Illustrator 21.1.0, SVG Export Plug-In . SVG Version: 6.00 Build 0)  -->
<svg version="1.1" id="レイヤー_1" xmlns="http://www.w3.org/2000/svg" xmlns:xlink="http://www.w3.org/1999/xlink" x="0px"
	 y="0px" viewBox="0 0 595.3 841.9" style="enable-background:new 0 0 595.3 841.9;" xml:space="preserve">
<g>
	<path d="M482.1,219.8c-7.6,6.9-15.1,13.6-25.3,22.7c16.2-1.7,29.2-3.1,45.4-4.5c-9.1,9.8-16.7,18.4-25.3,27.5
		c19.6,1,38.9,1.9,61.4,3.1c-11.7,8.1-20.8,14.3-31.5,21.7c19.1,0,36.3,0,53.8,0c0.2,0.5,0.2,1,0.5,1.4c-13.6,4.3-27.2,8.6-43,13.4
		c15.5,3.6,28.9,6.7,42.3,9.8c0,1,0,1.9,0,2.6c-9.3,1.2-18.6,2.6-30.8,4.3c12.9,7.6,23.9,13.9,34.9,20.3c0,0.7,0,1.4-0.2,1.9
		c-6.2,0-12.4,0-18.6,0c-0.5,1-1.2,2.2-1.7,3.1c11.9,10.8,23.9,21.5,38.2,34.6c-14.3,1.7-24.1,2.9-35.8,4.3
		c12.9,15.3,25.1,29.9,37.5,44.7c-0.7,1.2-1.4,2.2-2.2,3.3c-7.9-3.1-16-6.2-25.8-10c10.3,15.5,19.4,29.6,30.3,46.1
		c-9.6-3.3-16.5-6-26.8-9.6c10.8,14.8,19.4,27.2,28.2,39.7c-0.2,0.5-0.7,1.2-1,1.7c-9.6-4.8-18.9-9.3-31.3-15.5
		c6.7,18.4,12.7,34.6,18.4,50.9c-0.7,0.5-1.2,1-1.9,1.4c-10.5-8.1-21-16.2-33.5-25.8c7.2,17.4,13.4,33,19.6,48.3
		c-0.7,0.7-1.7,1.4-2.4,2.2c-5.7-3.6-11.5-7.2-18.4-11.5c-1.4,10-2.6,18.9-4.1,29.4c-5.5-4.5-9.3-8.1-15.3-13.4
		c-1.2,11-2.4,20.3-3.8,31.8c-4.3-5.5-7.2-9.3-11-14.1c-1.4,16.7-2.9,32.3-4.1,47.8c-1,0.2-1.9,0.7-2.9,1
		c-5.3-7.9-10.3-15.5-17.7-26.5c0,14.1,0,24.6,0,38.2c-8.1-9.8-14.1-17.2-21.5-26.3c0,10.3,0,18.4,0,26.5c-0.7,0.5-1.4,1-2.4,1.2
		c-6-7.4-11.9-14.8-19.1-23.7c-2.4,15.8-4.5,29.6-6.9,46.8c-5.5-11.7-9.6-20.1-14.3-30.1c-7.9,6.7-14.3,12.4-21,18.2
		c-5.5-4.1-10.3-7.4-16-11.7c-4.8,7.4-9.6,14.6-15.1,23.2c-4.8-8.4-9.1-15.5-13.9-24.1c-5.7,6.7-10.8,12.9-16.5,19.8
		c-5.7-8.6-11-16.2-16.5-24.6c-8.1,7.6-15.3,14.8-23.9,22.9c-1.2-5-1.9-8.4-2.9-12.9c-7.6,6.2-14.8,11.9-22.9,18.6
		c-0.5-5.5-0.7-9.8-1.2-13.9c-0.7-0.7-1.7-1.4-2.4-2.2c-5.5,7.9-11,15.8-16.2,23.7c-1.7-1.2-3.3-2.4-5-3.6
		c0.7-5.7,1.2-11.2,2.2-20.1c-4.5,5.7-7.6,9.6-11.5,14.3c-2.2-5.5-3.8-9.8-5.7-14.6c-12.9,6-25.6,11.7-39.9,18.2
		c0.7-6.2,1.2-11.2,1.9-17.7c-3.1,3.8-5.5,6.5-8.8,10.8c-3.1-6.5-5.7-12.2-8.8-18.6c-10.3,2.4-20.1,4.5-31.3,7.2
		c-1.9-8.8-3.8-17.4-6.2-27.7c-5.7,9.8-10.8,18.4-17.7,30.1c-2.9-19.1-5.3-34.9-7.9-51.9c-4.8,3.3-8.8,6-13.9,9.8
		c0.7-7.2,1.4-12.9,2.4-22.5c-7.9,7.4-13.6,12.9-20.8,19.4c1-11.9,1.7-22,2.4-34.2c-6.2,6.5-11.2,11.7-17.9,18.9
		c2.2-19.4,3.8-35.8,6-54c-11.9,3.3-22.5,6.5-34.6,9.8c6.7-13.4,12.7-25.3,19.6-39.4c-7.2,3.3-12.7,5.7-18.2,8.1
		c-0.5-0.5-1-1-1.7-1.4c5.7-6.9,11.2-14.1,18.9-23.4c-13.9,2.6-24.9,4.8-38,7.2c10-14.8,19.1-28,29.6-43.2c-10.5,3.8-18.9,6.9-27,10
		c-0.2-0.5-0.7-1-1-1.2c6.9-5.5,14.1-11,22.5-17.7c-6.7-1.9-12.2-3.6-18.6-5.5c6.2-4.8,11.7-8.8,20.1-15.1c-11.9,0-21,0-29.9,0
		c-0.2-1-0.7-1.7-1-2.6c10.5-7.6,21.3-15.3,33-23.7c-9.6-3.3-17.4-6-26.8-9.3c10.8-9.8,20.8-18.6,32-29.2c-7.9,0-14.3,0-20.5,0
		c-0.2-0.7-0.5-1.4-0.7-2.4c9.6-5.7,19.1-11.5,30.6-18.4c-5.5-2.2-9.3-3.6-15.1-5.7c15.8-7.9,30.3-15.3,46.4-23.4
		c-9.1-6.7-17.2-12.9-27.5-20.5c14.6-2.6,27-4.8,41.6-7.4c-6.5-4.1-11-6.9-17.2-10.8c13.9-4.8,26.5-8.8,41.1-13.9
		c-9.1-2.2-15.8-3.8-22.5-5.3c0-0.7,0.2-1.4,0.2-1.9c13.6-2.4,27.5-4.5,42.8-7.2c-4.8-6.9-8.8-12.4-14.6-21
		c10.8,4.3,18.9,7.4,29.9,11.7c-4.8-9.1-8.6-16.2-13.6-25.6c11.5,5.5,21,10,32.3,15.3c-3.8-9.6-6.9-17.4-11-27.2
		c10.3,4.8,18.4,8.8,28.4,13.4c-5.7-10-10.3-18.2-14.6-26.3c0.7-0.7,1.7-1.4,2.4-2.2c8.1,7.4,16.5,14.6,25.3,22.7
		c0-16,0-30.6,0-48.3c8.1,13.6,15.1,25.1,23.2,38.7c0-13.9,0-25.3,0-36.6c0.7-0.2,1.2-0.5,1.9-0.7c6.5,11.9,13.1,23.9,20.8,38
		c2.9-16.5,5.5-30.6,8.1-44.7c1,0,1.9,0,2.9,0c1.9,9.3,4.1,18.9,6.7,30.8c5-12.9,9.1-23.2,13.1-33.5c1.2,0.2,2.4,0.5,3.6,0.5
		c2.2,11.7,4.3,23.4,6.5,35.1c0.5,0,1.2,0.2,1.7,0.2c2.2-11,4.1-22,6.7-36.1c6.9,14.3,12.9,26.5,19.1,39.4
		c13.6-9.6,26.8-18.6,39.9-28c1,0.5,1.9,1,2.6,1.4c-2.4,6.7-5,13.1-8.4,22.2c12.9-10,24.9-19.1,38.5-29.9
		c-3.8,15.1-6.9,28-10.8,43.7c9.8-10.5,17.4-18.6,25.1-26.8c0.7,0.5,1.4,0.7,2.2,1.2c-3.3,10-6.9,20.3-11.2,33.5
		c12.2-9.3,21.7-16.7,33.9-26c-4.5,11.7-8.1,20.5-12.7,31.8c12.7-5.5,23.4-10,37.3-16.2c-7.6,12.2-13.6,21.7-21.5,34.2
		c17.2-6,31.1-10.8,45.2-15.8C481.6,218.6,481.8,219.1,482.1,219.8z M228.3,486c24.4,0,55.7-21.3,61.6-41.8
		c9.1-31.3-3.6-62.1-32-78.4c-23.2-13.1-53.5-4.3-65,19.6c-11.5,24.1-12.2,49.2-1.7,73.8C197.9,475.2,209.7,486,228.3,486z
		 M425,424.8c-4.1-13.4-6.7-27.7-12.7-40.4c-8.1-16.7-22-28.2-42.3-28.2c-20.1,0-33.2,11.2-42.8,27.5c-8.4,14.1-10.3,29.6-8.4,45.9
		c3.3,27.5,28.2,49.5,55.7,48.3C406.6,476.9,423,459,425,424.8z"/>
	<path d="M279,415c0.2,10.8-7.6,20.1-16.5,19.8c-8.4-0.2-16.2-9.6-16.5-19.1c-0.2-10.5,7.6-19.6,17-19.4
		C272,396.4,279,404.5,279,415z"/>
	<path d="M352.5,428.9c-9.3,0.2-16.2-7.2-16.5-17.7c-0.2-10.8,6-18.6,15.3-18.9s16.2,7.2,16.5,17.7
		C368.1,420.5,361.6,428.4,352.5,428.9z"/>
</g>
</svg>
