<?xml version="1.0" encoding="utf-8"?>
<!-- Generator: Adobe Illustrator 21.1.0, SVG Export Plug-In . SVG Version: 6.00 Build 0)  -->
<svg version="1.1" id="レイヤー_1" xmlns="http://www.w3.org/2000/svg" xmlns:xlink="http://www.w3.org/1999/xlink" x="0px"
	 y="0px" viewBox="0 0 595.3 841.9" style="enable-background:new 0 0 595.3 841.9;" xml:space="preserve">
<style type="text/css">
	.st0{fill:#FFFFFF;}
	.st1{fill:#EF84CB;}
</style>
<g id="レイヤー_1_1_">
</g>
<g id="レイヤー_2">
	<g>
		<g id="XMLID_1_">
			<g>
				<path class="st0" d="M317.7,173.4c12.4,0,22.4,10,22.4,22.4c0,12.4-10,22.4-22.4,22.4c-12.4,0-22.4-10-22.4-22.4
					C295.3,183.4,305.3,173.4,317.7,173.4z"/>
				<path class="st0" d="M316,249.9c17.5-1.1,17.5,21.4,2.7,22.6c-14.9,1.2-59.1,3.6-65,4.2c-6,0.6-12.5-1.2-13.4-10.4
					c-0.9-9.2,6.8-12,15.4-12.5C255.7,253.8,298.5,251.1,316,249.9z"/>
				<path class="st0" d="M234.2,181.5c12.4,0,22.4,10,22.4,22.4c0,12.4-10,22.4-22.4,22.4c-12.4,0-22.4-10-22.4-22.4
					C211.8,191.5,221.8,181.5,234.2,181.5z"/>
				<path class="st1" d="M298,107.3c117.8,0,213.3,95.5,213.3,213.3S415.8,533.9,298,533.9S84.7,438.4,84.7,320.6
					S180.2,107.3,298,107.3z M340.1,195.8c0-12.4-10-22.4-22.4-22.4c-12.4,0-22.4,10-22.4,22.4c0,12.4,10,22.4,22.4,22.4
					C330.1,218.2,340.1,208.2,340.1,195.8z M318.7,272.5c14.8-1.2,14.8-23.7-2.7-22.6c-17.5,1.2-60.3,3.9-60.3,3.9
					c-8.6,0.5-16.3,3.3-15.4,12.5c0.9,9.2,7.4,11,13.4,10.4C259.6,276.1,303.8,273.7,318.7,272.5z M256.6,203.9
					c0-12.4-10-22.4-22.4-22.4c-12.4,0-22.4,10-22.4,22.4c0,12.4,10,22.4,22.4,22.4C246.6,226.3,256.6,216.3,256.6,203.9z"/>
			</g>
			<g>
			</g>
		</g>
	</g>
	<g>
		<path class="st1" d="M55.5,328.6c0,0,42.7-2.7,60.3-3.9c17.5-1.2,17.5,21.4,2.7,22.6s-59.1,3.6-65,4.2s-12.5-1.2-13.4-10.4
			C39.2,331.9,47,329.2,55.5,328.6z"/>
		<circle class="st1" cx="18.8" cy="343.3" r="11.5"/>
		<path class="st1" d="M540,305.7c0,0-42.7,2.7-60.3,3.9c-17.5,1.2-17.5-21.4-2.7-22.6s59.1-3.6,65-4.2s12.5,1.2,13.4,10.4
			C556.3,302.5,548.6,305.2,540,305.7z"/>
		<circle class="st1" cx="576.8" cy="291.1" r="11.5"/>
	</g>
	<g>
		<path class="st1" d="M286.3,74.9c0,0,2.7,42.7,3.9,60.3c1.2,17.5-21.4,17.5-22.6,2.7s-3.6-59.1-4.2-65s1.2-12.5,10.4-13.4
			C283.1,58.6,285.8,66.4,286.3,74.9z"/>
		<circle class="st1" cx="271.6" cy="38.2" r="11.5"/>
		<path class="st1" d="M309.2,559.4c0,0-2.7-42.7-3.9-60.3c-1.2-17.5,21.4-17.5,22.6-2.7s3.6,59.1,4.2,65s-1.2,12.5-10.4,13.4
			C312.5,575.8,309.8,568,309.2,559.4z"/>
		<circle class="st1" cx="323.9" cy="596.2" r="11.5"/>
	</g>
	<g>
		<path class="st1" d="M84.5,201.8c0,0,38,19.8,53.6,27.8s4,27.3-9.4,20.7s-52.4-27.5-57.8-30c-5.4-2.6-10.1-7.5-6.1-15.8
			C68.8,196.2,76.8,197.9,84.5,201.8z"/>
		
			<ellipse transform="matrix(0.5167 -0.8562 0.8562 0.5167 -145.3514 133.3063)" class="st1" cx="45.4" cy="195.4" rx="11.5" ry="11.5"/>
		<path class="st1" d="M511.1,432.6c0,0-38-19.8-53.6-27.8s-4-27.3,9.4-20.7s52.4,27.5,57.8,30s10.1,7.5,6.1,15.8
			C526.8,438.2,518.7,436.5,511.1,432.6z"/>
		
			<ellipse transform="matrix(0.5167 -0.8562 0.8562 0.5167 -109.8838 683.2264)" class="st1" cx="550.2" cy="438.9" rx="11.5" ry="11.5"/>
	</g>
	<g>
		<path class="st1" d="M413.1,103.9c0,0-19.8,38-27.8,53.6s-27.3,4-20.7-9.4c6.7-13.3,27.5-52.4,30-57.8c2.6-5.4,7.5-10.1,15.8-6.1
			S417.1,96.2,413.1,103.9z"/>
		
			<ellipse transform="matrix(0.5167 -0.8562 0.8562 0.5167 147.3424 390.5326)" class="st1" cx="419.6" cy="64.8" rx="11.5" ry="11.5"/>
		<path class="st1" d="M182.4,530.5c0,0,19.8-38,27.8-53.6s27.3-4,20.7,9.4c-6.7,13.3-27.5,52.4-30,57.8c-2.6,5.4-7.5,10.1-15.8,6.1
			C176.8,546.2,178.4,538.1,182.4,530.5z"/>
		
			<ellipse transform="matrix(0.5167 -0.8562 0.8562 0.5167 -402.5776 426.0002)" class="st1" cx="176" cy="569.6" rx="11.5" ry="11.5"/>
	</g>
	<g>
		<path class="st1" d="M96.3,452.2c0,0,35.2-24.4,49.6-34.4c14.4-10.1,26,9.2,13.9,17.9c-12.1,8.7-48.7,33.6-53.5,37.2
			s-11.3,5.4-16.8-2C84,463.4,89.2,457.1,96.3,452.2z"/>
		
			<ellipse transform="matrix(0.8562 -0.5167 0.5167 0.8562 -239.5299 106.9661)" class="st1" cx="72.4" cy="483.7" rx="11.5" ry="11.5"/>
		<path class="st1" d="M499.3,182.2c0,0-35.2,24.4-49.6,34.4c-14.4,10.1-26-9.2-13.9-17.9s48.7-33.6,53.5-37.2
			c4.8-3.6,11.3-5.4,16.8,2C511.5,171,506.3,177.3,499.3,182.2z"/>
		
			<ellipse transform="matrix(0.8562 -0.5167 0.5167 0.8562 -2.604 291.9482)" class="st1" cx="523.1" cy="150.7" rx="11.5" ry="11.5"/>
	</g>
	<g>
		<path class="st1" d="M162.8,115.7c0,0,24.4,35.2,34.4,49.6s-9.2,26-17.9,13.9s-33.6-48.7-37.2-53.5c-3.6-4.8-5.4-11.3,2-16.8
			C151.6,103.4,157.9,108.7,162.8,115.7z"/>
		
			<ellipse transform="matrix(0.8562 -0.5167 0.5167 0.8562 -28.5759 80.9941)" class="st1" cx="131.2" cy="91.8" rx="11.5" ry="11.5"/>
		<path class="st1" d="M432.8,518.7c0,0-24.4-35.2-34.4-49.6c-10.1-14.4,9.2-26,17.9-13.9c8.7,12.1,33.6,48.7,37.2,53.5
			s5.4,11.3-2,16.8C444,531,437.7,525.7,432.8,518.7z"/>
		
			<ellipse transform="matrix(0.8562 -0.5167 0.5167 0.8562 -213.5948 317.9591)" class="st1" cx="464.3" cy="542.6" rx="11.5" ry="11.5"/>
	</g>
</g>
</svg>
