<?xml version="1.0" encoding="utf-8"?>
<!-- Generator: Adobe Illustrator 21.1.0, SVG Export Plug-In . SVG Version: 6.00 Build 0)  -->
<svg version="1.1" id="レイヤー_1" xmlns="http://www.w3.org/2000/svg" xmlns:xlink="http://www.w3.org/1999/xlink" x="0px"
	 y="0px" viewBox="0 0 595.3 841.9" style="enable-background:new 0 0 595.3 841.9;" xml:space="preserve">
<style type="text/css">
	.st0{fill:#AD66DD;}
	.st1{fill:#FFFFFF;}
</style>
<g id="レイヤー_1_1_">
</g>
<g>
	<g id="XMLID_1_">
		<g>
			<path class="st0" d="M297.6,67.2c152.4,0,276,123.6,276,276s-123.6,276-276,276s-276-123.6-276-276S145.2,67.2,297.6,67.2z
				 M352.2,181.7c0-16-13-29-29-29s-29,13-29,29s13,29,29,29C339.2,210.8,352.2,197.8,352.2,181.7z M324.4,281
				c19.2-1.5,19.2-30.7-3.5-29.2c-22.7,1.5-78,5-78,5c-11.1,0.7-21.1,4.2-20,16.1c1.2,11.9,9.6,14.2,17.3,13.5
				C248,285.6,305.2,282.6,324.4,281z M244.2,192.2c0-16-13-29-29-29s-29,13-29,29s13,29,29,29C231.2,221.3,244.2,208.3,244.2,192.2
				z"/>
			<path class="st1" d="M323.2,152.7c16,0,29,13,29,29c0,16.1-13,29.1-29,29c-16,0-29-13-29-29S307.2,152.7,323.2,152.7z"/>
			<path class="st1" d="M320.9,251.8c22.7-1.5,22.7,27.7,3.5,29.2c-19.2,1.6-76.4,4.6-84.2,5.4c-7.7,0.7-16.1-1.6-17.3-13.5
				c-1.1-11.9,8.9-15.4,20-16.1C242.9,256.8,298.2,253.3,320.9,251.8z"/>
			<path class="st1" d="M215.2,163.2c16,0,29,13,29,29c0,16.1-13,29.1-29,29c-16,0-29-13-29-29S199.2,163.2,215.2,163.2z"/>
		</g>
		<g>
		</g>
	</g>
</g>
</svg>
